<svg width="14" height="18" viewBox="0 0 14 18" fill="none" xmlns="http://www.w3.org/2000/svg">
<path d="M2.19998 14.6V7.4C2.19998 6.12696 2.70569 4.90606 3.60586 4.00588C4.50604 3.1057 5.72694 2.59999 6.99998 2.59999C8.27301 2.59999 9.49391 3.1057 10.3941 4.00588C11.2943 4.90606 11.8 6.12696 11.8 7.4V14.6M2.19998 14.6H11.8M2.19998 14.6H0.599976M11.8 14.6H13.4M6.19998 17H7.79998" stroke="black" stroke-linecap="round" stroke-linejoin="round"/>
<path d="M6.99995 2.59999C7.44178 2.59999 7.79995 2.24182 7.79995 1.79999C7.79995 1.35817 7.44178 0.999992 6.99995 0.999992C6.55812 0.999992 6.19995 1.35817 6.19995 1.79999C6.19995 2.24182 6.55812 2.59999 6.99995 2.59999Z" stroke="black"/>
</svg>
