<svg width="12" height="13" viewBox="0 0 12 13" fill="none" xmlns="http://www.w3.org/2000/svg">
<path fill-rule="evenodd" clip-rule="evenodd" d="M2.51592 2.26667L3.05725 11.3653C3.0654 11.5009 3.12499 11.6283 3.22385 11.7215C3.32272 11.8146 3.45341 11.8666 3.58925 11.8667H8.41058C8.54643 11.8666 8.67712 11.8146 8.77598 11.7215C8.87485 11.6283 8.93443 11.5009 8.94258 11.3653L9.48392 2.26667H2.51592ZM10.2859 2.26667L9.74125 11.4127C9.72103 11.7519 9.57204 12.0706 9.32472 12.3037C9.0774 12.5368 8.75042 12.6666 8.41058 12.6667H3.58925C3.24942 12.6666 2.92243 12.5368 2.67512 12.3037C2.4278 12.0706 2.27881 11.7519 2.25859 11.4127L1.71392 2.26667H0.333252V1.8C0.333252 1.71159 0.368371 1.62681 0.430883 1.5643C0.493395 1.50179 0.57818 1.46667 0.666585 1.46667H11.3333C11.4217 1.46667 11.5064 1.50179 11.569 1.5643C11.6315 1.62681 11.6666 1.71159 11.6666 1.8V2.26667H10.2859ZM7.33325 0C7.42166 0 7.50644 0.035119 7.56895 0.0976311C7.63147 0.160143 7.66658 0.244928 7.66658 0.333333V0.8H4.33325V0.333333C4.33325 0.244928 4.36837 0.160143 4.43088 0.0976311C4.49339 0.035119 4.57818 0 4.66658 0H7.33325ZM4.33325 4H5.13325L5.46658 10H4.66658L4.33325 4ZM6.86659 4H7.66658L7.33325 10H6.53325L6.86659 4Z" fill="#FF0000"/>
</svg>
