<svg width="24" height="24" viewBox="0 0 24 24" fill="none" xmlns="http://www.w3.org/2000/svg">
<path d="M5.39999 8.1C5.39999 7.38392 5.68445 6.69716 6.1908 6.19081C6.69715 5.68446 7.3839 5.4 8.09999 5.4C8.81607 5.4 9.50283 5.68446 10.0092 6.19081C10.5155 6.69716 10.8 7.38392 10.8 8.1C10.8 8.81609 10.5155 9.50284 10.0092 10.0092C9.50283 10.5155 8.81607 10.8 8.09999 10.8C7.3839 10.8 6.69715 10.5155 6.1908 10.0092C5.68445 9.50284 5.39999 8.81609 5.39999 8.1ZM8.09999 4.2C7.06564 4.2 6.07366 4.61089 5.34227 5.34228C4.61088 6.07368 4.19999 7.06566 4.19999 8.1C4.19999 9.13435 4.61088 10.1263 5.34227 10.8577C6.07366 11.5891 7.06564 12 8.09999 12C9.13433 12 10.1263 11.5891 10.8577 10.8577C11.5891 10.1263 12 9.13435 12 8.1C12 7.06566 11.5891 6.07368 10.8577 5.34228C10.1263 4.61089 9.13433 4.2 8.09999 4.2ZM14.9244 18.174C15.57 18.438 16.3824 18.6 17.4 18.6C19.6572 18.6 20.9052 17.7984 21.5628 16.8792C21.9066 16.3972 22.1218 15.8355 22.188 15.2472C22.1939 15.1926 22.1979 15.1377 22.2 15.0828V15C22.2 14.7636 22.1534 14.5296 22.063 14.3112C21.9725 14.0928 21.8399 13.8944 21.6728 13.7272C21.5056 13.5601 21.3072 13.4275 21.0888 13.337C20.8704 13.2466 20.6364 13.2 20.4 13.2H14.844C15.132 13.548 15.348 13.9548 15.474 14.4H20.4C20.5591 14.4 20.7117 14.4632 20.8243 14.5757C20.9368 14.6883 21 14.8409 21 15V15.0648L20.994 15.1248C20.9489 15.5055 20.8086 15.8687 20.586 16.1808C20.1936 16.7316 19.3416 17.4 17.4 17.4C16.5216 17.4 15.8664 17.2632 15.3756 17.0628C15.2772 17.3988 15.1344 17.778 14.9244 18.174ZM1.79999 15.6C1.79999 14.9635 2.05284 14.353 2.50293 13.9029C2.95302 13.4529 3.56347 13.2 4.19999 13.2H12C12.6365 13.2 13.247 13.4529 13.697 13.9029C14.1471 14.353 14.4 14.9635 14.4 15.6V15.7008L14.3976 15.7488L14.3856 15.9108C14.3005 16.6885 14.0243 17.433 13.5816 18.078C12.7404 19.296 11.1156 20.4 8.09999 20.4C5.08439 20.4 3.45959 19.296 2.61839 18.0792C2.17547 17.4339 1.89924 16.6889 1.81439 15.9108C1.80754 15.841 1.80274 15.7709 1.79999 15.7008V15.6ZM2.99999 15.672V15.6936L3.00839 15.7932C3.07351 16.3684 3.2787 16.9189 3.60599 17.3964C4.19039 18.2412 5.41559 19.2 8.09999 19.2C10.7844 19.2 12.0096 18.2412 12.594 17.3964C12.9213 16.9189 13.1265 16.3684 13.1916 15.7932C13.1964 15.7476 13.1988 15.7144 13.1988 15.6936L13.2 15.6732V15.6C13.2 15.2817 13.0736 14.9765 12.8485 14.7515C12.6235 14.5264 12.3182 14.4 12 14.4H4.19999C3.88173 14.4 3.5765 14.5264 3.35146 14.7515C3.12642 14.9765 2.99999 15.2817 2.99999 15.6V15.672ZM15.6 9C15.6 8.52261 15.7896 8.06477 16.1272 7.72721C16.4648 7.38964 16.9226 7.2 17.4 7.2C17.8774 7.2 18.3352 7.38964 18.6728 7.72721C19.0103 8.06477 19.2 8.52261 19.2 9C19.2 9.47739 19.0103 9.93523 18.6728 10.2728C18.3352 10.6104 17.8774 10.8 17.4 10.8C16.9226 10.8 16.4648 10.6104 16.1272 10.2728C15.7896 9.93523 15.6 9.47739 15.6 9ZM17.4 6C16.6043 6 15.8413 6.31607 15.2787 6.87868C14.7161 7.44129 14.4 8.20435 14.4 9C14.4 9.79565 14.7161 10.5587 15.2787 11.1213C15.8413 11.6839 16.6043 12 17.4 12C18.1956 12 18.9587 11.6839 19.5213 11.1213C20.0839 10.5587 20.4 9.79565 20.4 9C20.4 8.20435 20.0839 7.44129 19.5213 6.87868C18.9587 6.31607 18.1956 6 17.4 6Z" fill="black"/>
</svg>
