<svg width="22" height="17" viewBox="0 0 22 17" fill="none" xmlns="http://www.w3.org/2000/svg">
<path d="M4.39999 4.1C4.39999 3.38392 4.68445 2.69716 5.1908 2.19081C5.69715 1.68446 6.3839 1.4 7.09999 1.4C7.81607 1.4 8.50283 1.68446 9.00918 2.19081C9.51552 2.69716 9.79999 3.38392 9.79999 4.1C9.79999 4.81609 9.51552 5.50284 9.00918 6.00919C8.50283 6.51554 7.81607 6.8 7.09999 6.8C6.3839 6.8 5.69715 6.51554 5.1908 6.00919C4.68445 5.50284 4.39999 4.81609 4.39999 4.1ZM7.09999 0.200001C6.06564 0.200001 5.07366 0.610892 4.34227 1.34228C3.61088 2.07368 3.19999 3.06566 3.19999 4.1C3.19999 5.13435 3.61088 6.12633 4.34227 6.85772C5.07366 7.58911 6.06564 8 7.09999 8C8.13433 8 9.12631 7.58911 9.8577 6.85772C10.5891 6.12633 11 5.13435 11 4.1C11 3.06566 10.5891 2.07368 9.8577 1.34228C9.12631 0.610892 8.13433 0.200001 7.09999 0.200001ZM13.9244 14.174C14.57 14.438 15.3824 14.6 16.4 14.6C18.6572 14.6 19.9052 13.7984 20.5628 12.8792C20.9066 12.3972 21.1218 11.8355 21.188 11.2472C21.1939 11.1926 21.1979 11.1377 21.2 11.0828V11C21.2 10.7636 21.1534 10.5296 21.063 10.3112C20.9725 10.0928 20.8399 9.89435 20.6728 9.72721C20.5056 9.56006 20.3072 9.42748 20.0888 9.33702C19.8704 9.24656 19.6364 9.2 19.4 9.2H13.844C14.132 9.548 14.348 9.9548 14.474 10.4H19.4C19.5591 10.4 19.7117 10.4632 19.8243 10.5757C19.9368 10.6883 20 10.8409 20 11V11.0648L19.994 11.1248C19.9489 11.5055 19.8086 11.8687 19.586 12.1808C19.1936 12.7316 18.3416 13.4 16.4 13.4C15.5216 13.4 14.8664 13.2632 14.3756 13.0628C14.2772 13.3988 14.1344 13.778 13.9244 14.174ZM0.799988 11.6C0.799988 10.9635 1.05284 10.353 1.50293 9.90295C1.95302 9.45286 2.56347 9.2 3.19999 9.2H11C11.6365 9.2 12.247 9.45286 12.697 9.90295C13.1471 10.353 13.4 10.9635 13.4 11.6V11.7008L13.3976 11.7488L13.3856 11.9108C13.3005 12.6885 13.0243 13.433 12.5816 14.078C11.7404 15.296 10.1156 16.4 7.09999 16.4C4.08439 16.4 2.45959 15.296 1.61839 14.0792C1.17547 13.4339 0.899245 12.6889 0.814388 11.9108C0.807542 11.841 0.80274 11.7709 0.799988 11.7008V11.6ZM1.99999 11.672V11.6936L2.00839 11.7932C2.07351 12.3684 2.2787 12.9189 2.60599 13.3964C3.19039 14.2412 4.41559 15.2 7.09999 15.2C9.78439 15.2 11.0096 14.2412 11.594 13.3964C11.9213 12.9189 12.1265 12.3684 12.1916 11.7932C12.1964 11.7476 12.1988 11.7144 12.1988 11.6936L12.2 11.6732V11.6C12.2 11.2817 12.0736 10.9765 11.8485 10.7515C11.6235 10.5264 11.3182 10.4 11 10.4H3.19999C2.88173 10.4 2.5765 10.5264 2.35146 10.7515C2.12642 10.9765 1.99999 11.2817 1.99999 11.6V11.672ZM14.6 5C14.6 4.52261 14.7896 4.06477 15.1272 3.72721C15.4648 3.38964 15.9226 3.2 16.4 3.2C16.8774 3.2 17.3352 3.38964 17.6728 3.72721C18.0103 4.06477 18.2 4.52261 18.2 5C18.2 5.47739 18.0103 5.93523 17.6728 6.27279C17.3352 6.61036 16.8774 6.8 16.4 6.8C15.9226 6.8 15.4648 6.61036 15.1272 6.27279C14.7896 5.93523 14.6 5.47739 14.6 5ZM16.4 2C15.6043 2 14.8413 2.31607 14.2787 2.87868C13.7161 3.44129 13.4 4.20435 13.4 5C13.4 5.79565 13.7161 6.55871 14.2787 7.12132C14.8413 7.68393 15.6043 8 16.4 8C17.1956 8 17.9587 7.68393 18.5213 7.12132C19.0839 6.55871 19.4 5.79565 19.4 5C19.4 4.20435 19.0839 3.44129 18.5213 2.87868C17.9587 2.31607 17.1956 2 16.4 2Z" fill="black"/>
</svg>
