<svg width="15" height="14" viewBox="0 0 15 14" fill="none" xmlns="http://www.w3.org/2000/svg">
<path d="M7.505 3.83541e-05C7.927 -0.00296165 8.349 0.170038 8.671 0.516038L10.621 2.56604C10.834 2.79404 10.834 3.16604 10.621 3.39404C10.5723 3.44789 10.5128 3.49093 10.4464 3.52038C10.38 3.54984 10.3081 3.56505 10.2355 3.56505C10.1629 3.56505 10.091 3.54984 10.0246 3.52038C9.95824 3.49093 9.89875 3.44789 9.85 3.39404L8 1.45104V9.44404C8 9.75104 7.776 10 7.5 10C7.224 10 7 9.75104 7 9.44404V1.48404L5.18 3.39404C5.13126 3.44773 5.07183 3.49062 5.00553 3.51998C4.93922 3.54934 4.86751 3.5645 4.795 3.5645C4.72249 3.5645 4.65078 3.54934 4.58448 3.51998C4.51817 3.49062 4.45874 3.44773 4.41 3.39404C4.30705 3.28053 4.25003 3.13278 4.25003 2.97954C4.25003 2.8263 4.30705 2.67855 4.41 2.56504L6.36 0.515038C6.50496 0.356117 6.68084 0.228468 6.87686 0.139913C7.07289 0.0513571 7.28493 0.00376018 7.5 3.83541e-05H7.505ZM3.18 6.00004C2.707 6.00004 2.3 6.29404 2.208 6.70304L1.019 11.953C1.00771 12.0097 1.00135 12.0673 1 12.125C1 12.608 1.444 13 1.99 13H13.01C13.0753 13 13.14 12.9944 13.204 12.983C13.741 12.888 14.089 12.427 13.982 11.953L12.792 6.70304C12.7 6.29404 12.293 6.00004 11.822 6.00004H3.18ZM5 5.00004V6.00004H10V5.00004H11.825C12.771 5.00004 13.585 5.60604 13.771 6.44704L14.961 11.847C15.176 12.822 14.479 13.77 13.405 13.965C13.2765 13.9894 13.1458 14.0012 13.015 14H1.985C0.888 14 0 13.194 0 12.2C0 12.0807 0.013 11.963 0.039 11.847L1.229 6.44704C1.414 5.60604 2.229 5.00004 3.174 5.00004H5Z" fill="black"/>
</svg>
