<svg width="15" height="14" viewBox="0 0 15 14" fill="none" xmlns="http://www.w3.org/2000/svg">
<path d="M14.1667 11.4033C14.1667 11.5359 14.114 11.6631 14.0203 11.7569C13.9265 11.8506 13.7993 11.9033 13.6667 11.9033H10.2667C10.1553 12.3186 9.9101 12.6855 9.56899 12.9472C9.22788 13.2089 8.80996 13.3507 8.38004 13.3507C7.95012 13.3507 7.5322 13.2089 7.19109 12.9472C6.84998 12.6855 6.60474 12.3186 6.49337 11.9033H1.33337C1.20077 11.9033 1.07359 11.8506 0.979821 11.7569C0.886052 11.6631 0.833374 11.5359 0.833374 11.4033C0.833374 11.2707 0.886052 11.1435 0.979821 11.0498C1.07359 10.956 1.20077 10.9033 1.33337 10.9033H6.49337C6.60474 10.4881 6.84998 10.1212 7.19109 9.85948C7.5322 9.5978 7.95012 9.45596 8.38004 9.45596C8.80996 9.45596 9.22788 9.5978 9.56899 9.85948C9.9101 10.1212 10.1553 10.4881 10.2667 10.9033H13.6667C13.7993 10.9033 13.9265 10.956 14.0203 11.0498C14.114 11.1435 14.1667 11.2707 14.1667 11.4033ZM14.1667 2.59666C14.1667 2.72927 14.114 2.85645 14.0203 2.95021C13.9265 3.04398 13.7993 3.09666 13.6667 3.09666H12.0334C11.922 3.51191 11.6768 3.87882 11.3357 4.14051C10.9945 4.40219 10.5766 4.54403 10.1467 4.54403C9.71678 4.54403 9.29887 4.40219 8.95776 4.14051C8.61665 3.87882 8.3714 3.51191 8.26004 3.09666H1.33337C1.26771 3.09666 1.2027 3.08373 1.14203 3.0586C1.08137 3.03347 1.02625 2.99664 0.979821 2.95021C0.933391 2.90379 0.896562 2.84867 0.871434 2.788C0.846307 2.72734 0.833374 2.66232 0.833374 2.59666C0.833374 2.531 0.846307 2.46598 0.871434 2.40532C0.896562 2.34466 0.933391 2.28954 0.979821 2.24311C1.02625 2.19668 1.08137 2.15985 1.14203 2.13472C1.2027 2.10959 1.26771 2.09666 1.33337 2.09666H8.26004C8.3714 1.68141 8.61665 1.3145 8.95776 1.05281C9.29887 0.79113 9.71678 0.649292 10.1467 0.649292C10.5766 0.649292 10.9945 0.79113 11.3357 1.05281C11.6768 1.3145 11.922 1.68141 12.0334 2.09666H13.6667C13.7326 2.09576 13.798 2.10808 13.8591 2.13289C13.9202 2.1577 13.9756 2.1945 14.0223 2.24111C14.0689 2.28772 14.1057 2.3432 14.1305 2.40426C14.1553 2.46533 14.1676 2.53075 14.1667 2.59666ZM14.1667 6.99666C14.1676 7.06257 14.1553 7.12799 14.1305 7.18906C14.1057 7.25013 14.0689 7.3056 14.0223 7.35221C13.9756 7.39882 13.9202 7.43562 13.8591 7.46043C13.798 7.48524 13.7326 7.49756 13.6667 7.49666H5.86671C5.75535 7.91191 5.5101 8.27882 5.16899 8.54051C4.82788 8.80219 4.40996 8.94403 3.98004 8.94403C3.55012 8.94403 3.1322 8.80219 2.79109 8.54051C2.44998 8.27882 2.20474 7.91191 2.09337 7.49666H1.33337C1.20077 7.49666 1.07359 7.44398 0.979821 7.35021C0.886052 7.25645 0.833374 7.12927 0.833374 6.99666C0.833374 6.86405 0.886052 6.73688 0.979821 6.64311C1.07359 6.54934 1.20077 6.49666 1.33337 6.49666H2.09337C2.20474 6.08141 2.44998 5.7145 2.79109 5.45281C3.1322 5.19113 3.55012 5.04929 3.98004 5.04929C4.40996 5.04929 4.82788 5.19113 5.16899 5.45281C5.5101 5.7145 5.75535 6.08141 5.86671 6.49666H13.6667C13.7993 6.49666 13.9265 6.54934 14.0203 6.64311C14.114 6.73688 14.1667 6.86405 14.1667 6.99666Z" fill="black"/>
</svg>
