<svg width="20" height="20" viewBox="0 0 20 20" fill="none" xmlns="http://www.w3.org/2000/svg">
<path d="M18.27 5.796L14.66 7.672L10.268 9.908C10.1861 9.95372 10.0938 9.97771 10 9.97771C9.90621 9.97771 9.81395 9.95372 9.73203 9.908L5.34103 7.672L1.73003 5.796C1.63203 5.74641 1.54971 5.67063 1.4922 5.57706C1.43468 5.4835 1.40424 5.37583 1.40424 5.266C1.40424 5.15617 1.43468 5.0485 1.4922 4.95494C1.54971 4.86138 1.63203 4.78559 1.73003 4.736L9.74403 0.811001C9.82346 0.771073 9.91113 0.750278 10 0.750278C10.0889 0.750278 10.1766 0.771073 10.256 0.811001L18.27 4.736C18.368 4.78559 18.4503 4.86138 18.5079 4.95494C18.5654 5.0485 18.5958 5.15617 18.5958 5.266C18.5958 5.37583 18.5654 5.4835 18.5079 5.57706C18.4503 5.67063 18.368 5.74641 18.27 5.796Z" stroke="black" stroke-linecap="round" stroke-linejoin="round"/>
<path d="M5.34003 7.672L1.73003 9.395C1.63203 9.44459 1.54971 9.52038 1.4922 9.61394C1.43468 9.7075 1.40424 9.81518 1.40424 9.925C1.40424 10.0348 1.43468 10.1425 1.4922 10.2361C1.54971 10.3296 1.63203 10.4054 1.73003 10.455L5.34003 12.331L9.73203 14.567C9.81395 14.6127 9.90621 14.6367 10 14.6367C10.0938 14.6367 10.1861 14.6127 10.268 14.567L14.659 12.331L18.27 10.456C18.3569 10.403 18.4287 10.3285 18.4785 10.2397C18.5284 10.1509 18.5545 10.0508 18.5545 9.949C18.5545 9.8472 18.5284 9.7471 18.4785 9.65832C18.4287 9.56953 18.3569 9.49505 18.27 9.442L14.66 7.672" stroke="black" stroke-linecap="round" stroke-linejoin="round"/>
<path d="M5.34003 12.33L1.73003 14.055C1.63203 14.1046 1.54971 14.1804 1.4922 14.2739C1.43468 14.3675 1.40424 14.4752 1.40424 14.585C1.40424 14.6948 1.43468 14.8025 1.4922 14.8961C1.54971 14.9896 1.63203 15.0654 1.73003 15.115L9.73203 19.18C9.81395 19.2257 9.90621 19.2497 10 19.2497C10.0938 19.2497 10.1861 19.2257 10.268 19.18L18.27 15.115C18.3569 15.062 18.4287 14.9875 18.4785 14.8987C18.5284 14.8099 18.5545 14.7098 18.5545 14.608C18.5545 14.5062 18.5284 14.4061 18.4785 14.3173C18.4287 14.2285 18.3569 14.154 18.27 14.101L14.66 12.331" stroke="black" stroke-linecap="round" stroke-linejoin="round"/>
</svg>
