<svg width="16" height="16" viewBox="0 0 16 16" fill="none" xmlns="http://www.w3.org/2000/svg">
<path d="M14.5174 10.5263L13.0512 9.43158C13.2929 8.52211 13.309 7.53684 13.0512 6.55158L14.5174 5.47368L13.3493 3.36842L11.7139 4.14316C11.0775 3.46947 10.2718 2.94737 9.32927 2.70316L9.16814 0.842105H6.83186L6.67073 2.70316C5.72816 2.94737 4.92255 3.46947 4.28611 4.14316L2.65071 3.36842L1.48257 5.47368L2.94879 6.55158C2.69099 7.53684 2.7071 8.52211 2.94879 9.43158L1.48257 10.5263L2.65071 12.6316L4.28611 11.8484C4.92255 12.5137 5.72816 13.0189 6.67073 13.28L6.83186 15.1579H9.16814L9.32927 13.28C10.2718 13.0189 11.0775 12.5137 11.7139 11.8484L13.3493 12.6316L14.5174 10.5263ZM9.61123 0C9.82875 0 10.014 0.168421 10.014 0.387368L10.159 2.10526C10.7713 2.34105 11.3191 2.68632 11.8106 3.09895L13.301 2.36632C13.4862 2.26526 13.7199 2.33263 13.8327 2.52632L15.4439 5.47368C15.5567 5.65053 15.4922 5.89474 15.315 6.02105L13.9696 7.00632C14.0743 7.68 14.0663 8.34526 13.9696 8.99368L15.315 9.97895C15.4922 10.1053 15.5567 10.3495 15.4439 10.5263L13.8327 13.4737C13.7199 13.6505 13.4862 13.7179 13.301 13.6168L11.8106 12.8926C11.3191 13.3053 10.7713 13.6421 10.159 13.8947L10.014 15.5789C10.014 15.8232 9.82875 16 9.61123 16H6.38877C6.28194 16 6.17948 15.9556 6.10394 15.8767C6.0284 15.7977 5.98596 15.6906 5.98596 15.5789L5.84095 13.8947C5.22868 13.6421 4.68086 13.3053 4.18944 12.8926L2.69905 13.6168C2.51376 13.7179 2.28013 13.6505 2.16734 13.4737L0.55611 10.5263C0.443324 10.3495 0.507773 10.1053 0.685009 9.97895L2.03039 8.99368C1.93371 8.34526 1.92566 7.68 2.03039 7.00632L0.685009 6.02105C0.507773 5.89474 0.443324 5.65053 0.55611 5.47368L2.16734 2.52632C2.28013 2.33263 2.51376 2.26526 2.69905 2.36632L4.18944 3.09895C4.68086 2.68632 5.22868 2.34105 5.84095 2.10526L5.98596 0.387368C5.98596 0.168421 6.17125 0 6.38877 0H9.61123ZM8 5.05263C8.74782 5.05263 9.46501 5.36316 9.9938 5.9159C10.5226 6.46863 10.8197 7.21831 10.8197 8C10.8197 8.78169 10.5226 9.53137 9.9938 10.0841C9.46501 10.6368 8.74782 10.9474 8 10.9474C7.25218 10.9474 6.53499 10.6368 6.0062 10.0841C5.47742 9.53137 5.18035 8.78169 5.18035 8C5.18035 7.21831 5.47742 6.46863 6.0062 5.9159C6.53499 5.36316 7.25218 5.05263 8 5.05263ZM8 5.89474C7.46584 5.89474 6.95356 6.11654 6.57586 6.51135C6.19815 6.90617 5.98596 7.44165 5.98596 8C5.98596 8.55835 6.19815 9.09383 6.57586 9.48865C6.95356 9.88346 7.46584 10.1053 8 10.1053C8.53416 10.1053 9.04644 9.88346 9.42414 9.48865C9.80185 9.09383 10.014 8.55835 10.014 8C10.014 7.44165 9.80185 6.90617 9.42414 6.51135C9.04644 6.11654 8.53416 5.89474 8 5.89474Z" fill="black"/>
</svg>
