<svg width="17" height="16" viewBox="0 0 17 16" fill="none" xmlns="http://www.w3.org/2000/svg">
<path d="M15.1667 12.4035C15.1667 12.5361 15.114 12.6632 15.0203 12.757C14.9265 12.8508 14.7993 12.9035 14.6667 12.9035H11.2667C11.1553 13.3187 10.9101 13.6856 10.569 13.9473C10.2279 14.209 9.80996 14.3508 9.38004 14.3508C8.95012 14.3508 8.5322 14.209 8.19109 13.9473C7.84998 13.6856 7.60474 13.3187 7.49337 12.9035H2.33337C2.20077 12.9035 2.07359 12.8508 1.97982 12.757C1.88605 12.6632 1.83337 12.5361 1.83337 12.4035C1.83337 12.2708 1.88605 12.1437 1.97982 12.0499C2.07359 11.9561 2.20077 11.9035 2.33337 11.9035H7.49337C7.60474 11.4882 7.84998 11.1213 8.19109 10.8596C8.5322 10.5979 8.95012 10.4561 9.38004 10.4561C9.80996 10.4561 10.2279 10.5979 10.569 10.8596C10.9101 11.1213 11.1553 11.4882 11.2667 11.9035H14.6667C14.7993 11.9035 14.9265 11.9561 15.0203 12.0499C15.114 12.1437 15.1667 12.2708 15.1667 12.4035ZM15.1667 3.59678C15.1667 3.72939 15.114 3.85657 15.0203 3.95034C14.9265 4.0441 14.7993 4.09678 14.6667 4.09678H13.0334C12.922 4.51203 12.6768 4.87895 12.3357 5.14063C11.9945 5.40231 11.5766 5.54415 11.1467 5.54415C10.7168 5.54415 10.2989 5.40231 9.95776 5.14063C9.61665 4.87895 9.3714 4.51203 9.26004 4.09678H2.33337C2.26771 4.09678 2.2027 4.08385 2.14203 4.05872C2.08137 4.0336 2.02625 3.99677 1.97982 3.95034C1.93339 3.90391 1.89656 3.84879 1.87143 3.78812C1.84631 3.72746 1.83337 3.66244 1.83337 3.59678C1.83337 3.53112 1.84631 3.4661 1.87143 3.40544C1.89656 3.34478 1.93339 3.28966 1.97982 3.24323C2.02625 3.1968 2.08137 3.15997 2.14203 3.13484C2.2027 3.10972 2.26771 3.09678 2.33337 3.09678H9.26004C9.3714 2.68153 9.61665 2.31462 9.95776 2.05294C10.2989 1.79125 10.7168 1.64941 11.1467 1.64941C11.5766 1.64941 11.9945 1.79125 12.3357 2.05294C12.6768 2.31462 12.922 2.68153 13.0334 3.09678H14.6667C14.7326 3.09589 14.798 3.10821 14.8591 3.13302C14.9202 3.15783 14.9756 3.19462 15.0223 3.24123C15.0689 3.28784 15.1057 3.34332 15.1305 3.40439C15.1553 3.46545 15.1676 3.53087 15.1667 3.59678ZM15.1667 7.99678C15.1676 8.06269 15.1553 8.12811 15.1305 8.18918C15.1057 8.25025 15.0689 8.30573 15.0223 8.35233C14.9756 8.39894 14.9202 8.43574 14.8591 8.46055C14.798 8.48536 14.7326 8.49768 14.6667 8.49678H6.86671C6.75535 8.91203 6.5101 9.27895 6.16899 9.54063C5.82788 9.80231 5.40996 9.94415 4.98004 9.94415C4.55012 9.94415 4.1322 9.80231 3.79109 9.54063C3.44998 9.27895 3.20474 8.91203 3.09337 8.49678H2.33337C2.20077 8.49678 2.07359 8.44411 1.97982 8.35034C1.88605 8.25657 1.83337 8.12939 1.83337 7.99678C1.83337 7.86417 1.88605 7.737 1.97982 7.64323C2.07359 7.54946 2.20077 7.49678 2.33337 7.49678H3.09337C3.20474 7.08153 3.44998 6.71462 3.79109 6.45294C4.1322 6.19125 4.55012 6.04941 4.98004 6.04941C5.40996 6.04941 5.82788 6.19125 6.16899 6.45294C6.5101 6.71462 6.75535 7.08153 6.86671 7.49678H14.6667C14.7993 7.49678 14.9265 7.54946 15.0203 7.64323C15.114 7.737 15.1667 7.86417 15.1667 7.99678Z" fill="black"/>
</svg>
