<svg width="25" height="24" viewBox="0 0 25 24" fill="none" xmlns="http://www.w3.org/2000/svg">
<path d="M8.25 12C9.31087 12 10.3283 11.5786 11.0784 10.8284C11.8286 10.0783 12.25 9.06087 12.25 8C12.25 6.93913 11.8286 5.92172 11.0784 5.17157C10.3283 4.42143 9.31087 4 8.25 4C7.18913 4 6.17172 4.42143 5.42157 5.17157C4.67143 5.92172 4.25 6.93913 4.25 8C4.25 9.06087 4.67143 10.0783 5.42157 10.8284C6.17172 11.5786 7.18913 12 8.25 12ZM17.25 12C18.0456 12 18.8087 11.6839 19.3713 11.1213C19.9339 10.5587 20.25 9.79565 20.25 9C20.25 8.20435 19.9339 7.44129 19.3713 6.87868C18.8087 6.31607 18.0456 6 17.25 6C16.4544 6 15.6913 6.31607 15.1287 6.87868C14.5661 7.44129 14.25 8.20435 14.25 9C14.25 9.79565 14.5661 10.5587 15.1287 11.1213C15.6913 11.6839 16.4544 12 17.25 12ZM4.5 14C3.90326 14 3.33097 14.2371 2.90901 14.659C2.48705 15.081 2.25 15.6533 2.25 16.25V16.5C2.25 16.5 2.25 21 8.25 21C14.25 21 14.25 16.5 14.25 16.5V16.25C14.25 15.6533 14.0129 15.081 13.591 14.659C13.169 14.2371 12.5967 14 12 14H4.5ZM17.25 19.5C16.079 19.5 15.182 19.319 14.495 19.042C14.8949 18.3672 15.1458 17.6147 15.231 16.835C15.2407 16.7403 15.2471 16.6452 15.25 16.55V16.25C15.2513 15.4122 14.928 14.6065 14.348 14.002L14.45 14H20.05C20.6335 14 21.1931 14.2318 21.6056 14.6444C22.0182 15.0569 22.25 15.6165 22.25 16.2C22.25 16.2 22.25 19.5 17.25 19.5Z" fill="#222222"/>
</svg>
