<svg width="24" height="24" viewBox="0 0 24 24" fill="none" xmlns="http://www.w3.org/2000/svg">
<path d="M21.125 12.6202C21.2362 12.4198 21.2946 12.1944 21.2946 11.9652C21.2946 11.736 21.2362 11.5106 21.125 11.3102C20.9933 11.0903 20.8073 10.9078 20.585 10.7802L18.305 9.66019L20.605 8.48019C20.8235 8.36884 21.0069 8.19926 21.135 7.99019C21.265 7.77619 21.335 7.53019 21.335 7.28019C21.335 7.03219 21.265 6.79019 21.135 6.58019C21.0056 6.3624 20.8141 6.18828 20.585 6.08019L12.585 2.16019C12.4018 2.06865 12.1998 2.021 11.995 2.021C11.7902 2.021 11.5882 2.06865 11.405 2.16019L3.40501 6.09019C3.18278 6.20449 2.99604 6.37739 2.86501 6.59019C2.73485 6.80047 2.66589 7.04288 2.66589 7.29019C2.66589 7.5375 2.73485 7.77991 2.86501 7.99019C2.98901 8.20419 3.17301 8.37819 3.39501 8.49019L5.67501 9.66019L3.39501 10.7502C3.17555 10.8647 2.9921 11.0378 2.86501 11.2502C2.73485 11.4605 2.66589 11.7029 2.66589 11.9502C2.66589 12.1975 2.73485 12.4399 2.86501 12.6502C2.98901 12.8642 3.17301 13.0382 3.39501 13.1502L5.67501 14.3202L3.39501 15.4102C3.17555 15.5247 2.9921 15.6978 2.86501 15.9102C2.73485 16.1205 2.66589 16.3629 2.66589 16.6102C2.66589 16.8575 2.73485 17.0999 2.86501 17.3102C2.99201 17.5222 3.17501 17.6952 3.39501 17.8102L11.395 21.8102C11.586 21.9202 11.803 21.9792 12.025 21.9802C12.239 21.9822 12.4496 21.927 12.635 21.8202L20.695 17.7302C20.9892 17.5477 21.2021 17.2591 21.2896 16.9241C21.377 16.5891 21.3324 16.2333 21.165 15.9302C21.0333 15.7103 20.8473 15.5278 20.625 15.4002L18.335 14.2802L20.695 13.0702C20.8703 12.9544 21.0173 12.8006 21.125 12.6202ZM11.985 15.8802L7.72501 13.7102L7.53501 13.6202L4.31501 11.9602L7.31501 10.5102L11.315 12.5802C11.507 12.6872 11.725 12.7422 11.945 12.7402C12.1582 12.7467 12.3692 12.6949 12.555 12.5902L16.555 10.5202L19.555 11.9702L11.985 15.8802Z" fill="white"/>
</svg>
