<svg width="25" height="24" viewBox="0 0 25 24" fill="none" xmlns="http://www.w3.org/2000/svg">
<path d="M21.875 12.62C21.9862 12.4196 22.0446 12.1942 22.0446 11.965C22.0446 11.7358 21.9862 11.5104 21.875 11.31C21.7433 11.0901 21.5573 10.9076 21.335 10.78L19.055 9.66001L21.355 8.48001C21.5735 8.36865 21.7569 8.19907 21.885 7.99001C22.015 7.77601 22.085 7.53001 22.085 7.28001C22.085 7.03201 22.015 6.79001 21.885 6.58001C21.7556 6.36222 21.5641 6.18809 21.335 6.08001L13.335 2.16001C13.1518 2.06847 12.9498 2.02081 12.745 2.02081C12.5402 2.02081 12.3382 2.06847 12.155 2.16001L4.15501 6.09001C3.93278 6.2043 3.74604 6.37721 3.61501 6.59001C3.48485 6.80029 3.41589 7.0427 3.41589 7.29001C3.41589 7.53732 3.48485 7.77973 3.61501 7.99001C3.73901 8.20401 3.92301 8.37801 4.14501 8.49001L6.42501 9.66001L4.14501 10.75C3.92555 10.8645 3.7421 11.0376 3.61501 11.25C3.48485 11.4603 3.41589 11.7027 3.41589 11.95C3.41589 12.1973 3.48485 12.4397 3.61501 12.65C3.73901 12.864 3.92301 13.038 4.14501 13.15L6.42501 14.32L4.14501 15.41C3.92555 15.5245 3.7421 15.6976 3.61501 15.91C3.48485 16.1203 3.41589 16.3627 3.41589 16.61C3.41589 16.8573 3.48485 17.0997 3.61501 17.31C3.74201 17.522 3.92501 17.695 4.14501 17.81L12.145 21.81C12.336 21.92 12.553 21.979 12.775 21.98C12.989 21.982 13.1996 21.9268 13.385 21.82L21.445 17.73C21.7392 17.5475 21.9521 17.2589 22.0396 16.9239C22.127 16.5889 22.0824 16.2331 21.915 15.93C21.7833 15.7101 21.5973 15.5276 21.375 15.4L19.085 14.28L21.445 13.07C21.6203 12.9542 21.7673 12.8004 21.875 12.62ZM12.735 15.88L8.47501 13.71L8.28501 13.62L5.06501 11.96L8.06501 10.51L12.065 12.58C12.257 12.687 12.475 12.742 12.695 12.74C12.9082 12.7465 13.1192 12.6947 13.305 12.59L17.305 10.52L20.305 11.97L12.735 15.88Z" fill="#FF0000"/>
</svg>
