<svg width="21" height="17" viewBox="0 0 21 17" fill="none" xmlns="http://www.w3.org/2000/svg">
<path d="M6.25 8C7.31087 8 8.32828 7.57857 9.07843 6.82843C9.82857 6.07828 10.25 5.06087 10.25 4C10.25 2.93913 9.82857 1.92172 9.07843 1.17157C8.32828 0.421427 7.31087 0 6.25 0C5.18913 0 4.17172 0.421427 3.42157 1.17157C2.67143 1.92172 2.25 2.93913 2.25 4C2.25 5.06087 2.67143 6.07828 3.42157 6.82843C4.17172 7.57857 5.18913 8 6.25 8ZM15.25 8C16.0456 8 16.8087 7.68393 17.3713 7.12132C17.9339 6.55871 18.25 5.79565 18.25 5C18.25 4.20435 17.9339 3.44129 17.3713 2.87868C16.8087 2.31607 16.0456 2 15.25 2C14.4544 2 13.6913 2.31607 13.1287 2.87868C12.5661 3.44129 12.25 4.20435 12.25 5C12.25 5.79565 12.5661 6.55871 13.1287 7.12132C13.6913 7.68393 14.4544 8 15.25 8ZM2.5 10C1.90326 10 1.33097 10.2371 0.90901 10.659C0.487053 11.081 0.25 11.6533 0.25 12.25V12.5C0.25 12.5 0.25 17 6.25 17C12.25 17 12.25 12.5 12.25 12.5V12.25C12.25 11.6533 12.0129 11.081 11.591 10.659C11.169 10.2371 10.5967 10 10 10H2.5ZM15.25 15.5C14.079 15.5 13.182 15.319 12.495 15.042C12.8949 14.3672 13.1458 13.6147 13.231 12.835C13.2407 12.7403 13.2471 12.6452 13.25 12.55V12.25C13.2513 11.4122 12.928 10.6065 12.348 10.002L12.45 10H18.05C18.6335 10 19.1931 10.2318 19.6056 10.6444C20.0182 11.0569 20.25 11.6165 20.25 12.2C20.25 12.2 20.25 15.5 15.25 15.5Z" fill="#222222"/>
</svg>
